<svg width="145" height="181" viewBox="0 0 145 181" fill="none" xmlns="http://www.w3.org/2000/svg">
<path d="M68.5 181L5 147L28.8125 134.25C34.073 137.067 42.602 137.067 47.8625 134.25C53.123 131.433 53.123 126.867 47.8625 124.05L68.5 113L90.725 124.9C95.9855 122.083 104.514 122.083 109.775 124.9C115.036 127.717 115.036 132.283 109.775 135.1L132 147L68.5 181Z" fill="#FE9881"/>
<path d="M68.5 142L5.00001 108L28.8125 95.25C34.073 98.0667 42.602 98.0667 47.8625 95.25C53.123 92.4333 53.123 87.8667 47.8625 85.05L68.5 74L90.725 85.9C95.9855 83.0833 104.514 83.0833 109.775 85.9C115.036 88.7166 115.036 93.2833 109.775 96.1L132 108L68.5 142Z" fill="#8A70FF"/>
<path d="M68.5 108L5 74L28.8125 61.25C34.073 64.0666 42.602 64.0666 47.8625 61.25C53.123 58.4333 53.123 53.8666 47.8625 51.05L68.5 40L90.725 51.9C95.9855 49.0833 104.514 49.0833 109.775 51.9C115.036 54.7166 115.036 59.2833 109.775 62.1L132 74L68.5 108Z" fill="#FEC5B9"/>
<path d="M68.5 68L132 34L108.188 21.25C102.927 24.0666 94.398 24.0666 89.1375 21.25C83.877 18.4333 83.877 13.8666 89.1375 11.05L68.5 -1.31778e-05L46.275 11.9C41.0145 9.08334 32.4855 9.08334 27.225 11.9C21.9645 14.7166 21.9645 19.2833 27.225 22.1L5 34L68.5 68Z" fill="#DEC4F4"/>
</svg>
